<svg id="icon-1" data-name="Слой 1" xmlns="http://www.w3.org/2000/svg" viewBox="0 0 20 20"><title>1</title><path d="M20,7.27c-.13.29-.43.39-.67.54-.68.44-1.38.85-2.07,1.27a.46.46,0,0,1-.71-.14l-.92-1.41a2.7,2.7,0,0,0-.06.37q0,3.44,0,6.87c0,1.44,0,2.87,0,4.31,0,.44-.13.57-.57.57H5c-.4,0-.54-.15-.54-.55q0-5.65,0-11.31V7.57h0l-.65,1c-.09.14-.18.3-.28.43a.43.43,0,0,1-.63.13C2,8.6,1.11,8.07.27,7.53A1.2,1.2,0,0,1,0,7.27V7l.54-.91c.54-.9,1.09-1.8,1.64-2.69A7.71,7.71,0,0,1,3,2.32,4.12,4.12,0,0,1,5,1.09L7.63.39l1-.24L9.22,0h1.64l.1,0c.3,0,.6.07.89.15.8.21,1.6.45,2.4.67a6.87,6.87,0,0,1,2,.7,3.6,3.6,0,0,1,1.23,1.16L18.83,5,20,7ZM14.8,18.82s0-.06,0-.08q0-6.29,0-12.58a.45.45,0,0,0,0-.13,6.5,6.5,0,0,1-.34-2.68c0-.44.12-.89.18-1.33,0-.09,0-.15-.1-.18-.55-.14-1.11-.28-1.66-.44a.2.2,0,0,0-.27.12,2.46,2.46,0,0,1-.71.8,2.81,2.81,0,0,1-1.34.51,3.6,3.6,0,0,1-1.72-.16A2.5,2.5,0,0,1,7.45,1.48a.24.24,0,0,0-.2-.1c-.58.14-1.16.3-1.73.46A.16.16,0,0,0,5.45,2a6.54,6.54,0,0,1,.29,2.45A7.44,7.44,0,0,1,5.5,5.61a3.33,3.33,0,0,0-.21.68q0,6.16,0,12.32v.21ZM3,8.2c.46-.72.9-1.44,1.37-2.14a3.46,3.46,0,0,0,.6-2,6.41,6.41,0,0,0-.08-1c0-.32-.14-.64-.21-1A2.63,2.63,0,0,0,3.51,3c-.4.63-.8,1.26-1.19,1.89L1,7ZM15.44,2.14c-.06.44-.13.86-.16,1.28A5.09,5.09,0,0,0,15.39,5a3.49,3.49,0,0,0,.29.92c.45.77,1,1.52,1.45,2.28L19,7l-.56-.92c-.51-.84-1-1.67-1.52-2.52A3.24,3.24,0,0,0,15.44,2.14Zm-3.58-1a6.63,6.63,0,0,0-3.64,0A2.28,2.28,0,0,0,11.86,1.11Z"/></svg>