<svg id="icon-2" data-name="Слой 1" xmlns="http://www.w3.org/2000/svg" viewBox="0 0 20 20"><title>2</title><path d="M5.93,11.6v-.1q0-2.41,0-4.82a.83.83,0,0,0-.41-.76.75.75,0,0,0-.4-.11H1V3.32H8.36a.14.14,0,0,1,.11,0L10,4.92l0,.08.2-.21,1.42-1.42a.14.14,0,0,1,.11,0h7.39V5.81H15a.8.8,0,0,0-.78.58,1.05,1.05,0,0,0,0,.3q0,2.41,0,4.83v.09Z"/><path d="M9.25,17.4H5.94v-5h8.27v5H10.9s0-.05,0-.08q0-.77,0-1.55a.8.8,0,0,0-.44-.76.82.82,0,0,0-1.21.74c0,.52,0,1,0,1.55C9.25,17.34,9.25,17.37,9.25,17.4Z"/></svg>