<svg id="icon-3" data-name="Слой 1" xmlns="http://www.w3.org/2000/svg" viewBox="0 0 20 20"><title>3</title><path d="M13.77,17.18H6.69c0-.39.06-.83-.41-1.06-.07,0,0-.3-.05-.46,0-1.39,0-2.79,0-4.18,0-.77-.11-1.54-.17-2.31C6,9,6,8.87,6,8.72l-.15,0A6.7,6.7,0,0,0,5.26,10c-.28,1.39-.49,2.8-.74,4.2-.05.3-.18.58-.25.88a4.82,4.82,0,0,0-.15.85c0,.25-.1.35-.35.34s-.75,0-1.12,0A11.54,11.54,0,0,1,4.54,5.83,9.15,9.15,0,0,1,5.71,4.7,1.71,1.71,0,0,1,7,4.26c.87,0,1-.06,1.19-.8l2,.65V16.28h.19V4.1l2-.64c0,.87.7.78,1.37.82a1.81,1.81,0,0,1,.9.31,8.87,8.87,0,0,1,3.28,5.16,14.9,14.9,0,0,1,.4,4.54,1.1,1.1,0,0,1,0,.24c-.15.54-.3,1.08-.47,1.67H16.35c-.29-1.7-.56-3.4-.87-5.08a4.72,4.72,0,0,0-1-2.41c0,.47-.08.95-.12,1.42-.09,1.06-.21,2.13-.24,3.19,0,.8.06,1.61.08,2.41,0,.14,0,.38-.06.41C13.69,16.37,13.8,16.77,13.77,17.18Z"/></svg>