<svg id="icon-4" data-name="Слой 1" xmlns="http://www.w3.org/2000/svg" viewBox="0 0 20 20"><defs><style>.cls-1{fill:#010101;}</style></defs><title>4</title><path class="cls-1" d="M0,12.61V12.1A.51.51,0,0,0,0,12a2.17,2.17,0,0,1,1.29-1.74.59.59,0,0,0,.37-.51,7.74,7.74,0,0,1,2-3.94A8.37,8.37,0,0,1,7.4,3.53L8,3.34a2.74,2.74,0,0,0-.39-.13,5.2,5.2,0,0,1-.87-.12.73.73,0,0,1-.58-.79.73.73,0,0,1,.63-.69,3.13,3.13,0,0,1,1.74.31,8.26,8.26,0,0,1,.87.55,3.72,3.72,0,0,1,2-2.43h.27a.74.74,0,0,1,.59.67.82.82,0,0,1-.41.77,3.08,3.08,0,0,0-.45.52,2.31,2.31,0,0,0-.51,1.17H11A8.82,8.82,0,0,1,13.83,4a8.28,8.28,0,0,1,3.1,2.55A7.85,7.85,0,0,1,18.39,10a.23.23,0,0,0,.13.14,2.17,2.17,0,0,1,1.23,1.08,6.83,6.83,0,0,1,.28.84v.51a.48.48,0,0,0,0,.09,2.24,2.24,0,0,1-1.4,1.76.33.33,0,0,0-.2.23,6.93,6.93,0,0,1-2.15,3.24,9,9,0,0,1-4.63,2l-.88.12H9.17a9.94,9.94,0,0,1-3.53-.9,7.24,7.24,0,0,1-4-4.45.31.31,0,0,0-.16-.16A2.21,2.21,0,0,1,.3,13.37,7.1,7.1,0,0,1,0,12.61Zm17-1V11.3a6.76,6.76,0,0,0-.13-1.18A6.31,6.31,0,0,0,14.52,6.2,7,7,0,0,0,8.68,4.79a6.72,6.72,0,0,0-3.78,2,6.24,6.24,0,0,0-1.74,3.81,8,8,0,0,1-.11,1c-.24,0-.46-.06-.67-.07A.76.76,0,0,0,2.21,13a1,1,0,0,1,.5.09.28.28,0,0,1,.17.15c.08.22.13.45.2.67A5.62,5.62,0,0,0,6.22,17.6a8.54,8.54,0,0,0,3.64.82,8.52,8.52,0,0,0,4.49-1.08,5.62,5.62,0,0,0,2.21-2.26,7.66,7.66,0,0,0,.61-1.72c0-.17.11-.27.31-.27a2.26,2.26,0,0,0,.38-.06.76.76,0,0,0-.17-1.5Z"/><path class="cls-1" d="M10,17a4.88,4.88,0,0,1-2.55-.69A.9.9,0,0,1,7,15.59a.72.72,0,0,1,.28-.69A.68.68,0,0,1,8,14.79c.24.11.45.26.69.35a3.43,3.43,0,0,0,3.19-.27.79.79,0,0,1,1,.06.74.74,0,0,1,.13.94,1.39,1.39,0,0,1-.44.4A4.78,4.78,0,0,1,10,17Z"/><path class="cls-1" d="M5.43,11.57a1.54,1.54,0,0,1,3.07,0A1.56,1.56,0,0,1,7,13.11,1.54,1.54,0,0,1,5.43,11.6S5.43,11.58,5.43,11.57Z"/><path class="cls-1" d="M14.64,11.57A1.6,1.6,0,1,1,12.87,10h.25A1.54,1.54,0,0,1,14.64,11.57Z"/></svg>