<svg id="icon-5" data-name="Слой 1" xmlns="http://www.w3.org/2000/svg" viewBox="0 0 20 20"><defs><style>.cls-1{fill:#010101;}</style></defs><title>5</title><path class="cls-1" d="M11.9,20H8l-.65-.08c-.9-.13-1.8-.25-2.69-.4-.39-.06-.57-.29-.56-.73V9.83a14.71,14.71,0,0,0-1.32,1.84,2.17,2.17,0,0,0-.31,1v4.8H0V10.6a8.41,8.41,0,0,1,.4-.79L3.11,5.68a5,5,0,0,1,2.41-2l1.11-.37C6.32,2.54,6,1.77,5.74,1a.29.29,0,0,1,.2-.43,9.89,9.89,0,0,1,1-.26C7.52.2,8.13.1,8.74,0h2.5l.29.08L13.9.54c.37.07.41.25.28.58-.3.73-.57,1.46-.86,2.21.2.06.37.12.55.16A4.27,4.27,0,0,1,16.5,5.29c.44.63.85,1.27,1.26,1.92.74,1.16,1.47,2.32,2.2,3.47v6.79h-2.5V13a2.42,2.42,0,0,0-.52-1.66c-.39-.49-.71-1-1.07-1.55H15.8v9a.54.54,0,0,1-.45.62h0c-.44.11-.88.21-1.33.28C13.35,19.83,12.64,19.89,11.9,20ZM10,6.66c.3-.43.56-.78.8-1.16a4.83,4.83,0,0,0,.87-2.67A.57.57,0,0,1,12,2.26c.48-.29.95-.62,1.5-1a14,14,0,0,0-7,0l1.6,1.06a.47.47,0,0,1,.2.32A6.21,6.21,0,0,0,10,6.66Z"/></svg>