<svg id="icon-6" data-name="Слой 1" xmlns="http://www.w3.org/2000/svg" viewBox="0 0 20 20"><defs><style>.cls-1{fill:#fff;}</style></defs><title>6</title><path d="M5.15,7.57c-.17-.06-.35-.1-.52-.17a1.51,1.51,0,0,1-1-1A1.26,1.26,0,0,1,4.25,5a2.44,2.44,0,0,1,1-.25c.33,0,.66,0,1,0A1.49,1.49,0,0,0,7,4.61a.51.51,0,0,1,.4,0,.61.61,0,0,0,.75-.12.44.44,0,0,1,.6,0,.37.37,0,0,0,.56-.12.45.45,0,0,1,.26-.21.39.39,0,0,1,.43.12s.14.11.17.09.26,0,.29-.17a.41.41,0,0,1,.79-.1,2,2,0,0,0,.29-.1.22.22,0,0,0,.11-.14c0-.24.11-.39.27-.43a.42.42,0,0,1,.49.22l.38-.19A.44.44,0,0,1,13.53,3c.49-.36,1-.74,1.48-1.08a3.25,3.25,0,0,1,1.94-.64,1.54,1.54,0,0,1,1.17.59A4.41,4.41,0,0,1,19,3.24a7,7,0,0,1,.3,1.17,4.62,4.62,0,0,1-.62,2.94,11.18,11.18,0,0,1-.9,1.31A7,7,0,0,1,17,9.5a18.8,18.8,0,0,1-3.1,2.36c-.82.51-1.64,1-2.41,1.58A4.07,4.07,0,0,0,10.11,15a7.2,7.2,0,0,1-.51,1,7.4,7.4,0,0,1-1.28,1.46,7.18,7.18,0,0,1-1.37,1,2.43,2.43,0,0,1-1,.32A1.65,1.65,0,0,1,5,18.5a3.91,3.91,0,0,1-1.67-2.35c0-.09-.13-.16-.18-.25-.39-.55-.77-1.12-1.17-1.66-.22-.3-.46-.57-.7-.85a2.85,2.85,0,0,1-.74-1.2A1.84,1.84,0,0,1,.78,10.6a.78.78,0,0,1,.82-.24,2.66,2.66,0,0,0,2.32-.54A3.07,3.07,0,0,0,4.7,9a3.41,3.41,0,0,0,.42-1.29S5.13,7.64,5.15,7.57ZM1.38,11.19a1.15,1.15,0,0,0,0,1,5.66,5.66,0,0,0,.43.58c.28.35.59.67.85,1s.68,1,1,1.46a.25.25,0,0,0,.2.06,2.46,2.46,0,0,0,1.24-.71,5.23,5.23,0,0,1,1.51-1.05A7.78,7.78,0,0,0,8,12.89c.61-.39,1.18-.85,1.77-1.28L12.09,9.9a1.39,1.39,0,0,0,.59-.64c.14-.39.3-.76.46-1.14a1.43,1.43,0,0,1,.79-.9c.3-.11.61-.19.92-.28a2.41,2.41,0,0,0,1.32-.67,4.85,4.85,0,0,0,1.24-2.43,3,3,0,0,0-.17-1.52.4.4,0,0,0-.48-.26,3,3,0,0,0-1.22.49c-.45.32-.88.66-1.33,1-.29.2-.45.4-.27.77a.4.4,0,0,1-.24.49.39.39,0,0,1-.5-.18,2.15,2.15,0,0,1-.12-.29c-.34.07-.38.13-.3.46v0c.06.29,0,.48-.25.56A.43.43,0,0,1,12,5l-.07-.23-.37.11c0,.12,0,.23.08.33a.43.43,0,0,1-.3.56.44.44,0,0,1-.5-.32c0-.12-.07-.24-.1-.36l-.39.1c0,.11.06.21.09.31a.41.41,0,0,1-.23.51A.31.31,0,0,1,9.74,6a1.77,1.77,0,0,1-.21-.47c0-.08,0-.16-.16-.14l-.29.06c0,.1.06.21.09.31a.45.45,0,0,1-.29.6c-.24.06-.43-.09-.51-.39s-.09-.3-.13-.42H7.8l.09.36a.51.51,0,0,1-.13.56.42.42,0,0,1-.67-.27A1.81,1.81,0,0,1,7,5.74c0-.15-.08-.16-.2-.16l-1.58,0a1.22,1.22,0,0,0-.42.08c-.26.11-.44.34-.27.59a.83.83,0,0,0,.36.29c.27.1.57.16.85.24s.25.11.24.27a7,7,0,0,1,0,.87,3.47,3.47,0,0,1-1.06,2.17,4.1,4.1,0,0,1-1.78,1,3.22,3.22,0,0,1-.75.09C2,11.26,1.7,11.21,1.38,11.19Zm16.9-7.39c0,.12,0,.2-.06.28a4.37,4.37,0,0,1-.62,1.68A6.52,6.52,0,0,1,16.66,7a1.58,1.58,0,0,1-.64.46c-.54.18-1.08.34-1.62.5A.59.59,0,0,0,14,8.3l-.39.91a2.39,2.39,0,0,1-.56,1c-.3.24-.62.46-.93.69-.86.64-1.74,1.26-2.57,1.93a9.92,9.92,0,0,1-2.32,1.36,4.47,4.47,0,0,0-1.41.91,3.57,3.57,0,0,1-1.49.95c-.13,0-.14.08-.1.2a2.89,2.89,0,0,0,1.19,1.5c.18.11.37.26.6.2a2.35,2.35,0,0,0,.64-.27,11,11,0,0,0,1-.75,5.42,5.42,0,0,0,1.52-1.85A5.37,5.37,0,0,1,10,13.65a8.17,8.17,0,0,1,1.56-1.33c.9-.58,1.82-1.12,2.71-1.72.59-.4,1.13-.88,1.69-1.33a7.78,7.78,0,0,0,1.42-1.51,5,5,0,0,0,1-2.35A3.9,3.9,0,0,0,18.28,3.79Z"/><path class="cls-1" d="M1.38,11.19c.32,0,.64.07,1,.07a3.22,3.22,0,0,0,.75-.09,4.1,4.1,0,0,0,1.78-1A3.47,3.47,0,0,0,5.93,8a7,7,0,0,0,0-.87c0-.16-.11-.24-.24-.27s-.58-.13-.85-.24a.83.83,0,0,1-.36-.29c-.17-.25,0-.47.27-.59a1.22,1.22,0,0,1,.42-.08l1.58,0c.12,0,.19,0,.2.16a1.81,1.81,0,0,0,.11.42.42.42,0,0,0,.67.27.51.51,0,0,0,.13-.56L7.8,5.5h.44c0,.13.09.27.13.42s.28.45.51.39a.45.45,0,0,0,.29-.6c0-.1-.06-.21-.09-.31l.29-.06c.11,0,.13.06.16.14A1.77,1.77,0,0,0,9.74,6a.31.31,0,0,0,.44.07.41.41,0,0,0,.23-.51c0-.1-.06-.21-.09-.31l.39-.1c0,.13.07.25.1.36a.44.44,0,0,0,.5.32.43.43,0,0,0,.3-.56c0-.11,0-.22-.08-.33l.37-.11L12,5a.43.43,0,0,0,.56.32c.2-.07.3-.26.25-.56v0c-.09-.32,0-.39.3-.46a2.15,2.15,0,0,0,.12.29.39.39,0,0,0,.5.18.4.4,0,0,0,.24-.49c-.18-.37,0-.57.27-.77.45-.31.88-.66,1.33-1a3,3,0,0,1,1.22-.49.4.4,0,0,1,.48.26,3,3,0,0,1,.17,1.52,4.85,4.85,0,0,1-1.24,2.43,2.41,2.41,0,0,1-1.32.67c-.31.09-.62.17-.92.28a1.43,1.43,0,0,0-.79.9c-.16.38-.32.75-.46,1.14a1.39,1.39,0,0,1-.59.64L9.77,11.61C9.18,12,8.61,12.5,8,12.89a7.78,7.78,0,0,1-1.36.66,5.23,5.23,0,0,0-1.51,1.05,2.46,2.46,0,0,1-1.24.71.25.25,0,0,1-.2-.06c-.35-.48-.67-1-1-1.46s-.57-.68-.85-1a5.66,5.66,0,0,1-.43-.58A1.15,1.15,0,0,1,1.38,11.19Z"/><path class="cls-1" d="M18.28,3.79a3.9,3.9,0,0,1,.14,1.62,5,5,0,0,1-1,2.35A7.78,7.78,0,0,1,16,9.28c-.56.45-1.1.92-1.69,1.33-.88.6-1.81,1.14-2.71,1.72A8.17,8.17,0,0,0,10,13.65a5.37,5.37,0,0,0-.87,1.46A5.42,5.42,0,0,1,7.63,17a11,11,0,0,1-1,.75A2.35,2.35,0,0,1,6,18c-.23.07-.42-.08-.6-.2a2.89,2.89,0,0,1-1.19-1.5c0-.12,0-.16.1-.2a3.57,3.57,0,0,0,1.49-.95,4.47,4.47,0,0,1,1.41-.91,9.92,9.92,0,0,0,2.32-1.36c.83-.67,1.71-1.29,2.57-1.93.31-.23.63-.45.93-.69a2.39,2.39,0,0,0,.56-1L14,8.3a.59.59,0,0,1,.41-.36c.54-.16,1.09-.33,1.62-.5A1.58,1.58,0,0,0,16.66,7a6.52,6.52,0,0,0,.94-1.22,4.37,4.37,0,0,0,.62-1.68C18.23,4,18.25,3.92,18.28,3.79Z"/></svg>