<svg id="icon-7" data-name="Слой 1" xmlns="http://www.w3.org/2000/svg" viewBox="0 0 20 20"><defs><style>.cls-1{fill:#fff;}</style></defs><title>7</title><path d="M6.47,10.11a7.09,7.09,0,0,0-1.16,2,5.13,5.13,0,0,0-.15,1.31c-.05,1.36-.08,2.72-.13,4.08a.38.38,0,0,1-.16.25,1.73,1.73,0,0,1-.94.19c0-.2,0-.39,0-.58,0-1.76-.1-3.53-.12-5.29a3.71,3.71,0,0,1,.44-1.59Q4.89,9,5.62,7.53a1,1,0,0,1,.47-.44c.48-.21,1-.37,1.49-.56l.19-.05a5.4,5.4,0,0,1-.27-2A3.89,3.89,0,0,1,9.57,1.14a.9.9,0,0,1,.9,0,3.67,3.67,0,0,1,1.68,1.75,3.82,3.82,0,0,1,.37,2,5.47,5.47,0,0,1-.28,1.63l1.15.34a5.06,5.06,0,0,1,.47.19,1.35,1.35,0,0,1,.72.7c.43.92.88,1.82,1.32,2.74a6.13,6.13,0,0,1,.45,3c-.05,1.47-.11,2.94-.17,4.41,0,0,0,0,0,.09a1.3,1.3,0,0,1-1-.24.26.26,0,0,1-.08-.18c0-1.33-.08-2.65-.13-4,0-.4,0-.79-.09-1.19a1.41,1.41,0,0,0-.17-.51c-.32-.56-.65-1.11-1-1.66a.39.39,0,0,1,0-.08l-.05,0-.17,1.32c-.1.77-.21,1.53-.28,2.3a4.71,4.71,0,0,0,.06,1c.14,1,.3,2,.45,3,0,.15,0,.3.07.44a.49.49,0,0,1-.3.61,2.45,2.45,0,0,1-.79.18c-.85,0-1.69,0-2.56,0,0-.06,0-.11,0-.17q0-4.62,0-9.24c0-.06,0-.13,0-.16s.1-.31.07-.47a.65.65,0,0,1,0-.28q.26-.91.54-1.81a.75.75,0,0,1,.16-.26,3.69,3.69,0,0,0,1-1.77,3,3,0,0,0-.34-2.11A1.7,1.7,0,0,0,8.44,3a3,3,0,0,0,.43,3.31,3.5,3.5,0,0,1,.7,1.41c.07.28.16.55.24.82a.91.91,0,0,1,.05.62c0,.09.05.23.08.35a.72.72,0,0,1,0,.17q0,4.64,0,9.28S10,19,10,19l0,0L7.17,19a1.16,1.16,0,0,1-.23,0c-.5-.11-.65-.32-.58-.83.19-1.32.4-2.65.57-4a4.17,4.17,0,0,0-.08-1c-.12-1-.25-2-.38-3Zm2.79,3.8.06-.05-.06-.4a13.25,13.25,0,0,1,0-3,8.2,8.2,0,0,0,0-2.06,1.7,1.7,0,0,1-.06-.86s-.06-.17-.12-.19a.23.23,0,0,0-.21.07.3.3,0,0,0,0,.23c0,.07.11.12.12.19A8.4,8.4,0,0,1,9.13,9.1c0,.77,0,1.55-.09,2.32a9.64,9.64,0,0,0,.1,2.35C9.15,13.82,9.22,13.87,9.26,13.91ZM11,13.25l0,.05s.11-.09.12-.14a3.94,3.94,0,0,0,.06-.4,6.57,6.57,0,0,0,0-2.42A4.31,4.31,0,0,1,11,8.49a2.11,2.11,0,0,1,.2-.88.21.21,0,0,0-.05-.2.25.25,0,0,0-.22,0s-.07.13-.07.2a2,2,0,0,1,0,.37A4.78,4.78,0,0,0,11,10a5.37,5.37,0,0,1,.2,1.74C11.12,12.27,11.06,12.76,11,13.25Z"/><path d="M9.83,3.44h.28l0,0c-.06,0-.11.13-.17.13s-.12-.08-.18-.13Z"/><path class="cls-1" d="M9.26,13.91s-.11-.09-.12-.14A9.64,9.64,0,0,1,9,11.42c0-.77.09-1.55.09-2.32A8.4,8.4,0,0,0,9,7.85c0-.07-.1-.12-.12-.19a.3.3,0,0,1,0-.23.23.23,0,0,1,.21-.07c.06,0,.13.14.12.19a1.7,1.7,0,0,0,.06.86,8.2,8.2,0,0,1,0,2.06,13.25,13.25,0,0,0,0,3l.06.4Z"/><path class="cls-1" d="M11,13.25c.05-.49.11-1,.15-1.47A5.37,5.37,0,0,0,11,10a4.78,4.78,0,0,1,0-2.07,2,2,0,0,0,0-.37c0-.07,0-.17.07-.2a.25.25,0,0,1,.22,0,.21.21,0,0,1,.05.2,2.11,2.11,0,0,0-.2.88,4.31,4.31,0,0,0,.17,1.85,6.57,6.57,0,0,1,0,2.42,3.94,3.94,0,0,1-.06.4c0,.05-.08.09-.12.14Z"/></svg>