<svg id="icon-8" data-name="Слой 1" xmlns="http://www.w3.org/2000/svg" viewBox="0 0 20 20"><defs><style>.cls-1{fill:#010101;}</style></defs><title>8</title><path class="cls-1" d="M11.54,0h2c-.15.58-.32,1.16-.45,1.74s-.11.63.47.84a11.36,11.36,0,0,1,1.91.73A5.41,5.41,0,0,1,17.94,6.6c.6,2.06,1.29,4.13,2,6.13v7.1H16.86V13.68a1.48,1.48,0,0,0,0-.52c-.45-1.14-.91-2.29-1.37-3.42h-.14v8.43H4.65V9.77h-.1c-.42,1-.85,1.91-1.23,2.89a3.4,3.4,0,0,0-.21,1.17v6h-3V12.73l.14-.43C.89,10.23,1.53,8.1,2.2,6a4.74,4.74,0,0,1,3-3c.5-.19,1-.35,1.51-.52.24-.07.24-.18.24-.39L6.22,0H8.45A33.47,33.47,0,0,1,10,5.39a2.69,2.69,0,0,0,.16-.57A24.44,24.44,0,0,1,11.54,0Z"/></svg>