<svg id="buy-1" data-name="Слой 1" xmlns="http://www.w3.org/2000/svg" viewBox="0 0 20 20"><title>buy-1</title><path d="M2,10.68a3.66,3.66,0,0,1-.53-.06.89.89,0,0,1,.25-1.75h2A1.76,1.76,0,0,0,4,10.17a1.7,1.7,0,0,0,2.88-.06c.22-.36.43-.73.63-1.1a.24.24,0,0,1,.24-.15h4.59a.23.23,0,0,1,.23.14q.3.54.61,1.07a1.7,1.7,0,0,0,3.18-.77,3.29,3.29,0,0,0,0-.42h2a.88.88,0,0,1,.89.85.9.9,0,0,1-.85.94h-.32l-.47,1.76Q17,14.89,16.3,17.37a1.41,1.41,0,0,1-1.39,1.07H5.2a1.44,1.44,0,0,1-1.4-1.08L2.43,12.22Zm12.78,4q0-.93,0-1.85a.51.51,0,0,0-.5-.58c-.31,0-.51.22-.51.58q0,1.84,0,3.69a.51.51,0,1,0,1,0Q14.81,15.61,14.81,14.69Zm-5.66,0c0-.63,0-1.26,0-1.89a.5.5,0,1,0-1,0q0,1.9,0,3.8a.49.49,0,0,0,.29.47.5.5,0,0,0,.72-.5C9.15,15.94,9.14,15.31,9.14,14.69Zm-3.83,0c0,.62,0,1.24,0,1.86a.75.75,0,0,0,0,.25.5.5,0,0,0,.53.32.51.51,0,0,0,.43-.54q0-1.88,0-3.77a.49.49,0,0,0-.5-.53.5.5,0,0,0-.5.55Q5.31,13.75,5.31,14.69Zm5.66,0c0,.63,0,1.26,0,1.89a.68.68,0,0,0,.09.33.46.46,0,0,0,.53.19.49.49,0,0,0,.36-.51q0-1.88,0-3.77a.5.5,0,0,0-.5-.55.5.5,0,0,0-.49.56Q11,13.75,11,14.68Z"/><path d="M5.42,10.13a.89.89,0,0,1-.76-1.35l1.7-3L7.88,3.18a.89.89,0,0,1,1.18-.37A.9.9,0,0,1,9.42,4.1L7.89,6.76,6.24,9.63A.89.89,0,0,1,5.42,10.13Z"/><path d="M14.67,10.13a.89.89,0,0,1-.81-.49l-2-3.53-1.16-2a.9.9,0,1,1,1.56-.9l2.42,4.21c.27.46.54.92.8,1.39A.89.89,0,0,1,14.67,10.13Z"/></svg>