<svg id="buy-2" data-name="Слой 1" xmlns="http://www.w3.org/2000/svg" viewBox="0 0 20 20"><title>buy-2</title><path d="M5.82,12.81h8.57a1.55,1.55,0,0,1,1.45.88A1.6,1.6,0,0,1,14.31,16a1.61,1.61,0,0,1-1.46-1.24A1.58,1.58,0,0,1,13,13.64v0H6.21c0,.11.1.22.13.33a1.6,1.6,0,1,1-1.91-1.09,1.64,1.64,0,0,1,.49,0,0,0,0,0,0,.06,0L5.6,11.2a.11.11,0,0,0,0,0l-.09-.87-.08-.8-.09-.8L5.27,8l-.08-.7-.07-.7L5,5.86,5,5.25l-.07-.62L4.85,4V4H2.41v-.8H5.16a.45.45,0,0,1,.46.42c0,.25.05.5.08.75l0,.43h9.83l.17,0a.36.36,0,0,1,.26.34s0,0,0,.06c0,1.32,0,2.63,0,3.95a.42.42,0,0,1-.37.44l-.92.19-1.82.38-1.3.27-1.67.35-2.56.53-1,.22a.08.08,0,0,0,0,0l-.46,1.18Zm.55-2.09,8.84-1.83V5.61H5.83ZM4,14.41a.8.8,0,1,0,.8-.8A.81.81,0,0,0,4,14.41Zm11.2,0a.8.8,0,1,0-.81.8A.81.81,0,0,0,15.21,14.41Z"/></svg>