<svg id="credit" data-name="Слой 1" xmlns="http://www.w3.org/2000/svg" viewBox="0 0 50 50"><title>credit</title><path d="M25.34,44.72H5a4,4,0,0,1-3.75-2.3,3.72,3.72,0,0,1-.41-1.65c0-.07,0-.14,0-.21q0-15.43,0-30.87a4,4,0,0,1,.88-2.6,4,4,0,0,1,2.46-1.5c.19,0,.38,0,.57-.06H45.68A3.94,3.94,0,0,1,48,6.17a4,4,0,0,1,1.78,2.59,4.6,4.6,0,0,1,.09.89q0,15.47,0,30.93a4,4,0,0,1-2.51,3.82,3.77,3.77,0,0,1-1.65.31ZM4.13,25.13s0,.08,0,.11q0,7.68,0,15.36a.88.88,0,0,0,0,.2.82.82,0,0,0,.84.64H45.68a.89.89,0,0,0,.89-.9q0-7.64,0-15.28v-.14Zm42.43-9.82s0-.06,0-.08c0-1.89,0-3.77,0-5.66a.81.81,0,0,0-.12-.38.86.86,0,0,0-.83-.4H5a.85.85,0,0,0-.83.86c0,1.84,0,3.68,0,5.52,0,0,0,.09,0,.14Z"/><path d="M17.19,38.18V34.92H27v3.26Z"/><path d="M7.39,38.17V34.91h6.39c.11,0,.15,0,.15.14,0,1,0,2,0,3v.13Z"/></svg>