
<svg id="envelope" version="1.1" xmlns="http://www.w3.org/2000/svg" xmlns:xlink="http://www.w3.org/1999/xlink" width="20" height="15" viewBox="0 0 64 64">
<path d="M64 25.357v28.357q0 2.357-1.679 4.036t-4.036 1.679h-52.571q-2.357 0-4.036-1.679t-1.679-4.036v-28.357q1.571 1.75 3.607 3.107 12.929 8.786 17.75 12.321 2.036 1.5 3.304 2.339t3.375 1.714 3.929 0.875h0.071q1.821 0 3.929-0.875t3.375-1.714 3.304-2.339q6.071-4.393 17.786-12.321 2.036-1.393 3.571-3.107zM64 14.857q0 2.821-1.75 5.393t-4.357 4.393q-13.429 9.321-16.714 11.607-0.357 0.25-1.518 1.089t-1.929 1.357-1.857 1.161-2.054 0.964-1.786 0.321h-0.071q-0.821 0-1.786-0.321t-2.054-0.964-1.857-1.161-1.929-1.357-1.518-1.089q-3.25-2.286-9.357-6.518t-7.321-5.089q-2.214-1.5-4.179-4.125t-1.964-4.875q0-2.786 1.482-4.643t4.232-1.857h52.571q2.321 0 4.018 1.679t1.696 4.036z"></path>
</svg>
