<svg id="gift" data-name="Слой 1" xmlns="http://www.w3.org/2000/svg" viewBox="0 0 50 50"><title>gift</title><path d="M17.68.1c2.65.73,3.82,2.85,4.78,5.14a31.23,31.23,0,0,1,1.86,7.19c.11.7.2,1.4.29,2,.64-1.88,1.24-3.83,2-5.73a16,16,0,0,1,3.64-5.88,5.16,5.16,0,0,1,7.58,0,45.21,45.21,0,0,1,3.59,4,4.54,4.54,0,0,1-.47,6.49,13,13,0,0,1-5.11,2.84A27.16,27.16,0,0,1,29,17.39a.45.45,0,0,0-.29.1h17v8.67H27.28V17.51H23v8.65H4.45V17.51H21.82c-1.48-.41-3-.74-4.38-1.22A19.15,19.15,0,0,1,9.88,12a6.76,6.76,0,0,1-2.1-3.76A4.13,4.13,0,0,1,9.16,4.05,50.62,50.62,0,0,1,13.48,1,11.66,11.66,0,0,1,15.82.1ZM13.17,4.5a2.14,2.14,0,0,0-.05.28,3.12,3.12,0,0,0,0,.34,8,8,0,0,0,1.63,3.8,34.75,34.75,0,0,0,6.71,6.69c.52.42,1.07.81,1.6,1.21l.11-.12C20.22,12.37,17.69,7.67,13.17,4.5ZM37,6.67c-4.68,2.47-7.93,6.42-11.44,10.1a1.38,1.38,0,0,0,.5-.15,42.82,42.82,0,0,0,6.09-3.55,14.2,14.2,0,0,0,3.14-2.75A7.71,7.71,0,0,0,37,6.67Z"/><path d="M22.93,27.28V50.06H6.65V27.28Z"/><path d="M43.56,27.29V50.07H27.28V27.29Z"/></svg>