<?xml version="1.0" encoding="utf-8"?>
<!-- Generated by IcoMoon.io -->
<!DOCTYPE svg PUBLIC "-//W3C//DTD SVG 1.1//EN" "http://www.w3.org/Graphics/SVG/1.1/DTD/svg11.dtd">
<svg version="1.1" xmlns="http://www.w3.org/2000/svg" xmlns:xlink="http://www.w3.org/1999/xlink" width="15" height="15" viewBox="0 0 50 64">
<path d="M50.286 44.286q0 0.964-0.357 2.518t-0.75 2.446q-0.75 1.786-4.357 3.786-3.357 1.821-6.643 1.821-0.964 0-1.893-0.125t-2.054-0.446-1.679-0.518-1.982-0.732-1.75-0.643q-3.5-1.25-6.25-2.964-4.536-2.821-9.429-7.714t-7.714-9.429q-1.714-2.75-2.964-6.25-0.107-0.321-0.643-1.75t-0.732-1.982-0.518-1.679-0.446-2.054-0.125-1.893q0-3.286 1.821-6.643 2-3.607 3.786-4.357 0.893-0.393 2.446-0.75t2.518-0.357q0.5 0 0.75 0.107 0.643 0.214 1.893 2.714 0.393 0.679 1.071 1.929t1.25 2.268 1.107 1.911q0.107 0.143 0.625 0.893t0.768 1.268 0.25 1.018q0 0.714-1.018 1.786t-2.214 1.964-2.214 1.893-1.018 1.643q0 0.321 0.179 0.804t0.304 0.732 0.5 0.857 0.411 0.679q2.714 4.893 6.214 8.393t8.393 6.214q0.071 0.036 0.679 0.411t0.857 0.5 0.732 0.304 0.804 0.179q0.643 0 1.643-1.018t1.893-2.214 1.964-2.214 1.786-1.018q0.5 0 1.018 0.25t1.268 0.768 0.893 0.625q0.893 0.536 1.911 1.107t2.268 1.25 1.929 1.071q2.5 1.25 2.714 1.893 0.107 0.25 0.107 0.75z"></path>
</svg>
