<svg id="search" data-name="Слой 1" xmlns="http://www.w3.org/2000/svg" viewBox="0 0 50 50"><title>search</title><path d="M30.75,33.33A18.2,18.2,0,0,1,17,37.15,17.85,17.85,0,0,1,5.12,30.57,18.42,18.42,0,0,1,29.86,3.75a17.87,17.87,0,0,1,7.71,12.42,18.31,18.31,0,0,1-3.76,14.18c.51.5,1,1,1.51,1.47a.43.43,0,0,0,.37,0,3.44,3.44,0,0,1,4,.86L48,41a3.47,3.47,0,0,1,0,5.2c-.53.55-1.06,1.1-1.64,1.6a3.36,3.36,0,0,1-4.77-.12Q37.3,43.38,33,39a3.4,3.4,0,0,1-.79-3.78.52.52,0,0,0-.07-.44C31.73,34.3,31.25,33.83,30.75,33.33ZM4.35,18.84a15,15,0,1,0,15-15A15,15,0,0,0,4.35,18.84Z"/><path d="M9.85,14.2A13.32,13.32,0,0,0,24.39,27.92,10.21,10.21,0,0,1,9.85,14.2Z"/></svg>