<svg id="up" data-name="Ğ¡Ğ»Ğ¾Ğ¹ 1" xmlns="http://www.w3.org/2000/svg" viewBox="0 0 50 50"><title>up</title><path d="M.08,29.48v-.31a1.62,1.62,0,0,0,.22,0,13.18,13.18,0,0,0,5.64-4.2,13.43,13.43,0,0,0,2.16-4.15c.56-1.57,1.07-3.15,1.61-4.72a3.13,3.13,0,0,1,1.51-1.79c.64-.35,1.33-.61,2-1a15.5,15.5,0,0,0,6.19-6.13,6.34,6.34,0,0,0,.7-1.82c.17-.93.16-1.89.25-2.84A2.43,2.43,0,0,1,22.06.19l.4-.11h1.22a.49.49,0,0,0,.13.06,2.82,2.82,0,0,1,2.56,2.2A18.23,18.23,0,0,1,26.79,5a6.24,6.24,0,0,1,0,1.59,13.82,13.82,0,0,1-1.88,5.09c-.87,1.44-1.81,2.84-2.71,4.26-.55.86-1.07,1.74-1.62,2.63,1.55.06,3.06.14,4.57.17a50.65,50.65,0,0,1,6.81.3,9.16,9.16,0,0,1,5.2,2.69A2.35,2.35,0,0,1,37,25.5a19.37,19.37,0,0,1-1.7,1.22A4.48,4.48,0,0,1,37.37,30a4.75,4.75,0,0,1-1.6,3.5c.24.63.51,1.2.69,1.8a3.3,3.3,0,0,1-1.06,3.8,11.73,11.73,0,0,1-1.18.74,2.88,2.88,0,0,1,1.35,3.93,5.34,5.34,0,0,1-1.86,1.88,17.14,17.14,0,0,1-3.85,1.68,20.9,20.9,0,0,1-6.1,1.45c-.57,0-1.13.13-1.7.2h-2.9c-.48-.05-1-.08-1.43-.15-1.46-.23-2.92-.47-4.37-.74-1.24-.23-2.37-.84-3.65-1a9,9,0,0,0-4.48.44c-1,.4-2,.64-3,1C2.12,47.78,2,47.2,2,46.62c-.14-1.27-.27-2.55-.41-3.82S1.29,40.26,1.15,39,.88,36.44.74,35.17s-.29-2.65-.44-4C.24,30.63.15,30.05.08,29.48Z"/></svg>